<svg width="41" height="41" viewBox="0 0 41 41" fill="none" xmlns="http://www.w3.org/2000/svg">
<path d="M30.7158 18.4329V25.2663C30.7158 25.7104 30.6987 26.1375 30.6475 26.5475C30.2546 31.16 27.5383 33.4492 22.5329 33.4492H21.8496C21.4225 33.4492 21.0125 33.6542 20.7562 33.9958L18.7062 36.7292C17.8008 37.9421 16.3317 37.9421 15.4262 36.7292L13.3762 33.9958C13.2395 33.8366 13.0724 33.7062 12.8846 33.6124C12.6969 33.5185 12.4923 33.463 12.2829 33.4492H11.5996C6.14999 33.4492 3.41666 32.0996 3.41666 25.2663V18.4329C3.41666 13.4275 5.72291 10.7112 10.3183 10.3183C10.7283 10.2671 11.1554 10.25 11.5996 10.25H22.5329C27.9825 10.25 30.7158 12.9833 30.7158 18.4329Z" stroke="black" stroke-width="1.5" stroke-miterlimit="10" stroke-linecap="round" stroke-linejoin="round"/>
<path d="M37.5492 11.5995V18.4329C37.5492 23.4554 35.2429 26.1545 30.6475 26.5475C30.6987 26.1375 30.7158 25.7104 30.7158 25.2662V18.4329C30.7158 12.9833 27.9825 10.25 22.5329 10.25H11.5996C11.1554 10.25 10.7283 10.267 10.3183 10.3183C10.7112 5.72288 13.4275 3.41663 18.4329 3.41663H29.3662C34.8158 3.41663 37.5492 6.14996 37.5492 11.5995V11.5995Z" stroke="black" stroke-width="1.5" stroke-miterlimit="10" stroke-linecap="round" stroke-linejoin="round"/>
<path d="M23.0539 22.6354H23.071M17.0748 22.6354H17.0919M11.0956 22.6354H11.1127" stroke="black" stroke-width="2" stroke-linecap="round" stroke-linejoin="round"/>
</svg>
