<svg width="24" height="24" viewBox="0 0 24 24" fill="none" xmlns="http://www.w3.org/2000/svg">
<path d="M8 6V5.2C8 3.43 8 2 11.2 2H12.8C16 2 16 3.43 16 5.2V6M8 22H16C20.02 22 20.74 20.39 20.95 18.43L21.7 10.43C21.97 7.99 21.27 6 17 6H7C2.73 6 2.03 7.99 2.3 10.43L3.05 18.43C3.26 20.39 3.98 22 8 22Z" stroke="white" stroke-width="1.5" stroke-miterlimit="10" stroke-linecap="round" stroke-linejoin="round"/>
<path d="M21.65 11C19.3961 12.6369 16.7642 13.6759 14 14.02M2.62 11.27C4.87 12.81 7.41 13.74 10 14.03M14 13V14.02C14 15.11 13.99 16 12 16C10.02 16 10 15.12 10 14.03V13C10 12 10 12 11 12H13C14 12 14 12 14 13Z" stroke="white" stroke-width="1.5" stroke-miterlimit="10" stroke-linecap="round" stroke-linejoin="round"/>
</svg>
