<svg width="78" height="78" viewBox="0 0 78 78" fill="none" xmlns="http://www.w3.org/2000/svg">
<rect width="78" height="78" rx="39" fill="#0250A2"/>
<path d="M59 64.5C59 55.599 50.0361 48.4 39 48.4C27.9639 48.4 19 55.599 19 64.5M39 41.5C42.0875 41.5 45.0485 40.2884 47.2317 38.1317C49.4149 35.9751 50.6414 33.05 50.6414 30C50.6414 26.95 49.4149 24.0249 47.2317 21.8683C45.0485 19.7116 42.0875 18.5 39 18.5C35.9125 18.5 32.9514 19.7116 30.7683 21.8683C28.5851 24.0249 27.3586 26.95 27.3586 30C27.3586 33.05 28.5851 35.9751 30.7683 38.1317C32.9514 40.2884 35.9125 41.5 39 41.5V41.5Z" stroke="white" stroke-width="2" stroke-linecap="round" stroke-linejoin="round"/>
</svg>
