<svg width="40" height="40" viewBox="0 0 40 40" fill="none" xmlns="http://www.w3.org/2000/svg">
<path d="M35 11.6667V28.3334C35 33.3334 32.5 36.6667 26.6667 36.6667H13.3333C7.5 36.6667 5 33.3334 5 28.3334V11.6667C5 6.66671 7.5 3.33337 13.3333 3.33337H26.6667C32.5 3.33337 35 6.66671 35 11.6667Z" stroke="black" stroke-width="1.5" stroke-miterlimit="10" stroke-linecap="round" stroke-linejoin="round"/>
<path d="M22.0833 23.3334H29.1667M15 30H29.1667M25.8333 3.33337V16.4334C25.8333 17.1667 24.9667 17.5334 24.4333 17.05L20.5667 13.4834C20.4133 13.339 20.2106 13.2586 20 13.2586C19.7894 13.2586 19.5867 13.339 19.4333 13.4834L15.5667 17.05C15.0333 17.5334 14.1667 17.1667 14.1667 16.4334V3.33337H25.8333Z" stroke="black" stroke-width="1.5" stroke-miterlimit="10" stroke-linecap="round" stroke-linejoin="round"/>
</svg>
