<svg width="45" height="33" viewBox="0 0 45 33" fill="none" xmlns="http://www.w3.org/2000/svg">
<rect width="45" height="33" fill="white"/>
<path d="M34.6313 23.1412L35.3625 27.4862C35.55 28.6275 33.8813 29.425 32.55 28.8337L24.6938 25.41C23.8313 25.41 22.9875 25.3687 22.1625 25.2862C23.5837 24.0781 24.3685 22.5368 24.375 20.9412C24.375 17.0362 19.7625 13.8738 14.0625 13.8738C11.8875 13.8738 9.88126 14.3275 8.21251 15.125C8.15626 14.7812 8.13751 14.4375 8.13751 14.08C8.13751 7.82375 15.5438 2.75 24.6938 2.75C33.8438 2.75 41.25 7.82375 41.25 14.08C41.25 17.7925 38.6438 21.0787 34.6313 23.1412Z" stroke="black" stroke-width="1.5" stroke-linecap="round" stroke-linejoin="round"/>
<path d="M24.375 20.9413C24.375 22.5775 23.55 24.09 22.1625 25.2863C20.3062 26.9363 17.3625 27.995 14.0625 27.995L9.16875 30.1263C8.34375 30.4975 7.29375 29.9888 7.40625 29.2875L7.875 26.5788C5.3625 25.3 3.75 23.2513 3.75 20.9413C3.75 18.5213 5.5125 16.39 8.2125 15.125C9.88125 14.3275 11.8875 13.8738 14.0625 13.8738C19.7625 13.8738 24.375 17.0363 24.375 20.9413Z" stroke="black" stroke-width="1.5" stroke-linecap="round" stroke-linejoin="round"/>
</svg>
