<svg width="33" height="33" viewBox="0 0 33 33" fill="none" xmlns="http://www.w3.org/2000/svg">
<path d="M18.2325 4.95005L6.94373 16.8988C6.51748 17.3526 6.10498 18.2463 6.02248 18.8651L5.51373 23.3201C5.33498 24.9288 6.48998 26.0288 8.08498 25.7538L12.5125 24.9976C13.1312 24.8876 13.9975 24.4338 14.4237 23.9663L25.7125 12.0176C27.665 9.95505 28.545 7.6038 25.5062 4.73005C22.4812 1.8838 20.185 2.88755 18.2325 4.95005V4.95005Z" stroke="black" stroke-width="1.5" stroke-miterlimit="10" stroke-linecap="round" stroke-linejoin="round"/>
<path d="M16.3488 6.94373C16.637 8.7874 17.5293 10.4832 18.8856 11.7648C20.242 13.0465 21.9855 13.8415 23.8425 14.025M4.125 30.25H28.875" stroke="black" stroke-width="1.5" stroke-miterlimit="10" stroke-linecap="round" stroke-linejoin="round"/>
</svg>
