<svg width="39" height="39" viewBox="0 0 39 39" fill="none" xmlns="http://www.w3.org/2000/svg">
<path d="M35.75 13.845V6.4675C35.75 4.17625 34.71 3.25 32.1263 3.25H25.5612C22.9775 3.25 21.9375 4.17625 21.9375 6.4675V13.8288C21.9375 16.1363 22.9775 17.0462 25.5612 17.0462H32.1263C34.71 17.0625 35.75 16.1363 35.75 13.845ZM35.75 32.1263V25.5612C35.75 22.9775 34.71 21.9375 32.1263 21.9375H25.5612C22.9775 21.9375 21.9375 22.9775 21.9375 25.5612V32.1263C21.9375 34.71 22.9775 35.75 25.5612 35.75H32.1263C34.71 35.75 35.75 34.71 35.75 32.1263ZM17.0625 13.845V6.4675C17.0625 4.17625 16.0225 3.25 13.4388 3.25H6.87375C4.29 3.25 3.25 4.17625 3.25 6.4675V13.8288C3.25 16.1363 4.29 17.0462 6.87375 17.0462H13.4388C16.0225 17.0625 17.0625 16.1363 17.0625 13.845ZM17.0625 32.1263V25.5612C17.0625 22.9775 16.0225 21.9375 13.4388 21.9375H6.87375C4.29 21.9375 3.25 22.9775 3.25 25.5612V32.1263C3.25 34.71 4.29 35.75 6.87375 35.75H13.4388C16.0225 35.75 17.0625 34.71 17.0625 32.1263Z" stroke="black" stroke-width="1.5" stroke-linecap="round" stroke-linejoin="round"/>
</svg>
